<svg xmlns="http://www.w3.org/2000/svg" viewBox="0 0 1200 760" width="1200" height="760" role="img" aria-label="pilee knowledge map">
  <defs>
    <filter id="shadow" x="-20%" y="-20%" width="140%" height="140%">
      <feDropShadow dx="0" dy="8" stdDeviation="10" flood-color="#000000" flood-opacity="0.28"/>
    </filter>
    <marker id="arrow" markerWidth="10" markerHeight="10" refX="8" refY="5" orient="auto">
      <path d="M0,0 L10,5 L0,10 Z" fill="#6b7280"/>
    </marker>
    <marker id="arrowAccent" markerWidth="10" markerHeight="10" refX="8" refY="5" orient="auto">
      <path d="M0,0 L10,5 L0,10 Z" fill="#f97316"/>
    </marker>
    <style>
      .bg { fill: #0d1117; }
      .panel { fill: #161b22; stroke: #30363d; stroke-width: 1.2; }
      .panel-soft { fill: #111827; stroke: #30363d; stroke-width: 1.2; }
      .title { font-family: "Helvetica Neue", Arial, "Apple SD Gothic Neo", "Noto Sans KR", sans-serif; font-size: 34px; font-weight: 800; fill: #f8fafc; letter-spacing: -0.03em; }
      .subtitle { font-family: "Helvetica Neue", Arial, "Apple SD Gothic Neo", "Noto Sans KR", sans-serif; font-size: 13px; font-weight: 500; fill: #8b949e; letter-spacing: -0.01em; }
      .section { font-family: "Helvetica Neue", Arial, "Apple SD Gothic Neo", "Noto Sans KR", sans-serif; font-size: 12px; font-weight: 800; fill: #8b949e; letter-spacing: 0.08em; }
      .h { font-family: "Helvetica Neue", Arial, "Apple SD Gothic Neo", "Noto Sans KR", sans-serif; font-size: 18px; font-weight: 800; fill: #f3f4f6; letter-spacing: -0.025em; }
      .p { font-family: "Helvetica Neue", Arial, "Apple SD Gothic Neo", "Noto Sans KR", sans-serif; font-size: 12px; font-weight: 500; fill: #9ca3af; letter-spacing: -0.01em; }
      .small { font-family: "Helvetica Neue", Arial, "Apple SD Gothic Neo", "Noto Sans KR", sans-serif; font-size: 12px; font-weight: 500; fill: #8b949e; letter-spacing: -0.01em; }
      .num { font-family: "Helvetica Neue", Arial, "Apple SD Gothic Neo", "Noto Sans KR", sans-serif; font-size: 34px; font-weight: 800; fill: #f8fafc; letter-spacing: -0.04em; }
      .numLabel { font-family: "Helvetica Neue", Arial, "Apple SD Gothic Neo", "Noto Sans KR", sans-serif; font-size: 9px; font-weight: 800; fill: #9ca3af; letter-spacing: 0.02em; }
      .chip { font-family: "Helvetica Neue", Arial, "Apple SD Gothic Neo", "Noto Sans KR", sans-serif; font-size: 11px; font-weight: 800; letter-spacing: -0.015em; }
      .chipSmall { font-family: "Helvetica Neue", Arial, "Apple SD Gothic Neo", "Noto Sans KR", sans-serif; font-size: 12px; font-weight: 500; fill: #8b949e; letter-spacing: -0.01em; }
      .orange { stroke: #f97316; }
      .blue { stroke: #38bdf8; }
      .green { stroke: #22c55e; }
      .yellow { stroke: #eab308; }
      .purple { stroke: #a78bfa; }
      .orangeText { fill: #fdba74; }
      .blueText { fill: #7dd3fc; }
      .greenText { fill: #86efac; }
      .yellowText { fill: #fde68a; }
      .purpleText { fill: #c4b5fd; }
    </style>
  </defs>

  <rect class="bg" width="1200" height="760" rx="16"/>

  <!-- Header -->
  <g>
    <circle cx="430" cy="42" r="14" fill="#1f2937" stroke="#f97316" stroke-width="1.3"/>
    <path d="M425 47 C419 40, 428 33, 431 25 C432 33, 439 37, 434 47 C432 50, 427 50, 425 47 Z" fill="#f97316"/>
    <text x="620" y="53" text-anchor="middle" class="title">pilee Knowledge Map</text>
    <text x="600" y="78" text-anchor="middle" class="subtitle">private 기록에서 공개 가능한 판단 문서로, 매일 정합성을 확인하는 흐름</text>
  </g>

  <!-- Metrics -->
  <g filter="url(#shadow)">
    <rect x="154" y="112" width="210" height="86" rx="14" class="panel blue"/>
    <text x="259" y="148" text-anchor="middle" class="num">61/61</text>
    <text x="259" y="172" text-anchor="middle" class="numLabel">SURFACES LINKED</text>
    <text x="259" y="187" text-anchor="middle" class="small">README coverage</text>

    <rect x="384" y="112" width="210" height="86" rx="14" class="panel orange"/>
    <text x="489" y="148" text-anchor="middle" class="num">59</text>
    <text x="489" y="172" text-anchor="middle" class="numLabel">JUDGMENT DOCS</text>
    <text x="489" y="187" text-anchor="middle" class="small">feature보다 작은 판단 단위</text>

    <rect x="614" y="112" width="210" height="86" rx="14" class="panel green"/>
    <text x="719" y="148" text-anchor="middle" class="num">59</text>
    <text x="719" y="172" text-anchor="middle" class="numLabel">HIGH CONFIDENCE</text>
    <text x="719" y="187" text-anchor="middle" class="small">현재 확정 doctrine</text>

    <rect x="844" y="112" width="210" height="86" rx="14" class="panel yellow"/>
    <text x="949" y="148" text-anchor="middle" class="num">0</text>
    <text x="949" y="172" text-anchor="middle" class="numLabel">REVIEW QUEUE</text>
    <text x="949" y="187" text-anchor="middle" class="small">fresh after resolver</text>
  </g>

  <!-- Main flow background -->
  <g>
    <text x="78" y="260" class="section">SOURCE</text>
    <text x="472" y="260" class="section">KNOWLEDGE CORE</text>
    <text x="872" y="260" class="section">REVIEW LOOP</text>
  </g>

  <!-- Left source cards -->
  <g filter="url(#shadow)">
    <rect x="60" y="286" width="285" height="92" rx="14" class="panel-soft"/>
    <text x="84" y="318" class="h">① Private history</text>
    <text x="84" y="344" class="p">pilee-history.md / Notion</text>
    <text x="84" y="362" class="p">개인 서사와 시행착오 보존</text>

    <rect x="60" y="406" width="285" height="92" rx="14" class="panel-soft orange"/>
    <text x="84" y="438" class="h">② Sanitize</text>
    <text x="84" y="463" class="p">업무·개인 맥락 제거</text>
    <text x="84" y="481" class="p">재사용 가능한 판단만 승격</text>
  </g>

  <!-- Center core -->
  <g filter="url(#shadow)">
    <rect x="430" y="300" width="340" height="178" rx="18" class="panel orange"/>
    <text x="600" y="335" text-anchor="middle" class="section orangeText">PUBLIC / SANITIZED</text>
    <text x="600" y="384" text-anchor="middle" class="num">59</text>
    <text x="600" y="411" text-anchor="middle" class="h">Judgment docs</text>
    <text x="600" y="438" text-anchor="middle" class="p">문서 단위 = 기능 하나가 아니라</text>
    <text x="600" y="458" text-anchor="middle" class="p">앞으로 재사용할 판단 하나</text>
  </g>

  <!-- Right loop cards -->
  <g filter="url(#shadow)">
    <rect x="855" y="286" width="285" height="92" rx="14" class="panel-soft purple"/>
    <text x="879" y="318" class="h">③ Freshness</text>
    <text x="879" y="343" class="p">reviewed_commit 기준 진단</text>
    <text x="879" y="363" class="p">fresh · confidence · coverage</text>

    <rect x="855" y="406" width="285" height="92" rx="14" class="panel-soft yellow"/>
    <text x="879" y="438" class="h">④ Daily auto PR</text>
    <text x="879" y="463" class="p">매일 freshness 점검</text>
    <text x="879" y="481" class="p">knowledge-review.md 생성</text>

    <rect x="855" y="526" width="285" height="92" rx="14" class="panel-soft green"/>
    <text x="879" y="558" class="h">⑤ User review</text>
    <text x="879" y="583" class="p">README narrative 확인</text>
    <text x="879" y="603" class="p">review_needed 해소</text>
  </g>

  <!-- Arrows -->
  <path d="M346 332 H420" fill="none" stroke="#6b7280" stroke-width="2" marker-end="url(#arrow)"/>
  <path d="M346 452 H420" fill="none" stroke="#f97316" stroke-width="2" marker-end="url(#arrowAccent)"/>
  <path d="M770 358 H846" fill="none" stroke="#6b7280" stroke-width="2" marker-end="url(#arrow)"/>
  <path d="M770 420 C810 420, 820 452, 846 452" fill="none" stroke="#6b7280" stroke-width="2" marker-end="url(#arrow)"/>
  <path d="M998 498 V518" fill="none" stroke="#6b7280" stroke-width="2" marker-end="url(#arrow)"/>
  <path d="M855 572 C748 672, 456 672, 344 476" fill="none" stroke="#30363d" stroke-width="1.5" stroke-dasharray="5 5" marker-end="url(#arrow)"/>

  <!-- Doctrine clusters -->
  <g filter="url(#shadow)">
    <rect x="230" y="540" width="600" height="150" rx="18" class="panel"/>
    <text x="530" y="571" text-anchor="middle" class="h">Doctrine clusters</text>

    <g transform="translate(262,592)">
      <rect width="118" height="34" rx="9" fill="#1f2937" stroke="#f97316"/>
      <text x="59" y="15" text-anchor="middle" class="chip orangeText">workflow</text>
      <text x="59" y="28" text-anchor="middle" class="chipSmall">24 docs</text>
    </g>
    <g transform="translate(396,592)">
      <rect width="118" height="34" rx="9" fill="#1f2937" stroke="#a78bfa"/>
      <text x="59" y="15" text-anchor="middle" class="chip purpleText">knowledge</text>
      <text x="59" y="28" text-anchor="middle" class="chipSmall">11 docs</text>
    </g>
    <g transform="translate(530,592)">
      <rect width="118" height="34" rx="9" fill="#1f2937" stroke="#38bdf8"/>
      <text x="59" y="15" text-anchor="middle" class="chip blueText">ui</text>
      <text x="59" y="28" text-anchor="middle" class="chipSmall">6 docs</text>
    </g>
    <g transform="translate(664,592)">
      <rect width="118" height="34" rx="9" fill="#1f2937" stroke="#22c55e"/>
      <text x="59" y="15" text-anchor="middle" class="chip greenText">agent</text>
      <text x="59" y="28" text-anchor="middle" class="chipSmall">5 docs</text>
    </g>

    <g transform="translate(262,636)">
      <rect width="118" height="34" rx="9" fill="#1f2937" stroke="#fb7185"/>
      <text x="59" y="15" text-anchor="middle" class="chip" fill="#fda4af">verify</text>
      <text x="59" y="28" text-anchor="middle" class="chipSmall">4 docs</text>
    </g>
    <g transform="translate(396,636)">
      <rect width="118" height="34" rx="9" fill="#1f2937" stroke="#2dd4bf"/>
      <text x="59" y="15" text-anchor="middle" class="chip" fill="#5eead4">runtime</text>
      <text x="59" y="28" text-anchor="middle" class="chipSmall">3 docs</text>
    </g>
    <g transform="translate(530,636)">
      <rect width="118" height="34" rx="9" fill="#1f2937" stroke="#0ea5e9"/>
      <text x="59" y="15" text-anchor="middle" class="chip" fill="#7dd3fc">web</text>
      <text x="59" y="28" text-anchor="middle" class="chipSmall">2 docs</text>
    </g>
    <g transform="translate(664,636)">
      <rect width="118" height="34" rx="9" fill="#1f2937" stroke="#94a3b8"/>
      <text x="59" y="15" text-anchor="middle" class="chip" fill="#cbd5e1">other</text>
      <text x="59" y="28" text-anchor="middle" class="chipSmall">4 docs</text>
    </g>
  </g>

  <!-- Footer -->
  <g>
    <rect x="80" y="704" width="1040" height="38" rx="12" fill="#0b1220" stroke="#30363d"/>
    <text x="112" y="728" class="p">Generated block은 자동 갱신 · README 시각화/철학 문구와 review_needed 문서는 PR에서 검토</text>
    <circle cx="974" cy="723" r="5" fill="#22c55e"/>
    <text x="988" y="727" class="small">high</text>
    <circle cx="1038" cy="723" r="5" fill="#eab308"/>
    <text x="1052" y="727" class="small">queue</text>
  </g>
</svg>
